<?xml version="1.0" encoding="utf-8"?>
<!-- Generator: Adobe Illustrator 26.0.2, SVG Export Plug-In . SVG Version: 6.00 Build 0)  -->
<svg version="1.1" id="Layer_1" xmlns="http://www.w3.org/2000/svg" xmlns:xlink="http://www.w3.org/1999/xlink" x="0px" y="0px"
	 viewBox="0 0 391.9 130.6" style="enable-background:new 0 0 391.9 130.6;" xml:space="preserve">
<style type="text/css">
	.st0{fill:#19FF00;}
</style>
<g>
	<path class="st0" d="M88.8,125.7c-0.2,0.5-0.6,1-1.2,1.3c-1.4-0.1-3.1-0.1-5.2,0c-2.9,0-4.6,0-5.2,0H38.3c-0.5,0-1.1,0-1.7,0h-0.5
		c-1.3-0.4-6.7-0.5-16.5-0.1c-8.4,0.2-12.8-0.5-13.3-2.2c-1.8-5.9-2.7-14.3-2.7-25c0-3.1,0.1-7.6,0.3-13.5c0.2-5.9,0.3-10,0.3-12.5
		c0-4.8,0-12-0.1-21.7c-0.1-9.7-0.1-16.9-0.1-21.7c0-2.4,0-6,0.1-10.8c0.1-4.8,0.1-8.4,0.1-10.8c0-2.8,0.7-4.6,2.1-5.4
		c0.8-0.4,2.8-0.6,6-0.6c3.3,0,4.8,0,4.6,0c0.9,0.3,1.7,0.3,2.3,0c1,0.2,2.2,0.2,3.9,0h0.5c1.9-0.1,4.8-0.1,8.7,0c6.2,0,9.2,0,9,0
		c4.3,0,10.8,0,19.5,0c8.7,0,15.2,0,19.5,0c0.4,0,1.4,0,2.8,0c1.2,0,2.2,0,2.9,0C87,3.1,87.6,4.8,87.6,8c0-0.8-0.1,7.5-0.4,24.9
		c-0.2,13.9-0.2,21.2,0,21.9L87,55.3c0,1.8,0.1,4.4,0.4,7.9c-0.1,0.1-0.2,5.1-0.3,15.1C87,88,86.9,93.8,86.9,95.6v18.6
		c0,1.6,0.3,2.9,0.9,4.1l-0.1,0.4c0.2,0.8,0.4,1.4,0.5,1.8c-0.1,0.5,0,1.4,0.3,2.5C88.7,124.3,88.8,125.2,88.8,125.7z M87,122.9
		c0-0.8-0.3-2.1-0.8-3.7c-0.5-1.7-0.8-2.8-0.8-3.6V97.5c0-6.6,0.1-16.6,0.3-29.9c0.2-13.3,0.3-23.4,0.3-30c0-7.4-0.1-14.2-0.3-20.3
		c0.2-0.5,0.4-1.7,0.4-3.6c0-6-0.6-9-1.9-9H71.2H11.2c-2.5,0-4.1,0.3-4.9,1c-0.7,1.8-1.1,5.2-1.2,10.1c0.1-4.3,0.1-0.8,0.1,10.7
		c0,4.9,0.1,12.3,0.2,22.1c0.2,9.8,0.2,17.2,0.2,22c0,7.3-0.2,11.7-0.5,13.2c0.4,1.3,0.5,3.6,0.5,6.9c0,2.6-0.1,6.4-0.3,11.6
		c-0.2,5.1-0.3,8.3-0.3,9.6c0,0.9,0,1.7,0,2.5v0.5c0.1,0.4,0.2,1,0.5,1.7c0.2,1.7,0.3,2.4,0.4,2.1l0.3,0.6c0.3,0.9,0.6,2.2,0.9,4
		c0.2,0.4,0.5,0.9,1.1,1.6c0.5,0.6,16.3,0.9,47.2,0.9c1.7,0,5,0.1,9.8,0.2c4.2,0.1,7.5,0.1,10,0.1c3.7-0.1,6.9-0.2,9.7-0.5
		C86.3,125.3,87,124.5,87,122.9z M85.6,122.6l-0.1,0.7c-0.6,1-1.7,1.5-3.2,1.5c-1.1,0-2.6-0.4-4.5-1.1c-1.9-0.8-3.3-1.1-4.2-1.1
		l-0.9,0.4c-0.3,0.4-0.8,0.8-1.4,1.4c-2.8,0.2-5.8,0.4-8.8,0.4H37.3c-0.1,0-1.4-0.1-3.9-0.2c-1.6-0.1-2.9-0.1-3.8,0.1l-0.5-0.1
		l-1,0.1l-0.5-0.1c-0.9,0.2-2.1,0.3-3.7,0.2c-2.4-0.2-3.6-0.3-3.7-0.3c-5.2,0-8.2-0.2-9-0.5c-1.8-0.8-3.2-3.3-4.2-7.6
		c0-1.1-0.1-2.6-0.4-4.7c0.1-0.5,0.1-1.2,0-2.1c-0.1-0.9,0-1.6,0.1-2.1l-0.2-0.9l0.2-1.2L6.6,105l0.2-0.5l-0.2-0.4l0.2-0.6l-0.2-0.4
		l0.2-0.9c-0.2-0.8-0.3-1.8-0.3-2.8c0-4.1,0.1-10.3,0.3-18.5C7,72.7,7.1,66.6,7.1,62.4c0-1.7-0.2-6.2-0.5-13.5
		c-0.3-7.3-0.5-12.5-0.5-15.6c0-2.6,0.1-4.4,0.3-5.6l-0.1-0.3l-0.1-0.4c0.3-2.9,0.5-5.8,0.5-8.6c0-1,0-2.1,0-3.5
		c-0.1-1.4-0.1-2.3-0.1-2.7c0-2.3,0.4-3.9,1.3-4.7c0.9-0.8,2.9-1.2,6.1-1.3c1.3-0.1,6.2-0.1,14.9-0.1c6.5,0,10,0,10.5,0.1l0.8-0.1
		c21.5,0,35.8,0,42.7,0.1c1.1,0.6,1.7,2.4,2,5.3c0.1,0.7,0.2,2.8,0.2,6.2c0,0.3-0.1,3.3-0.4,9.1c-0.2,4.9-0.2,7.6-0.1,7.9l-0.2,0.5
		l0.3,0.8c0,1.5-0.1,3.7-0.3,6.6l-0.9,0.6c-2-1.1-3.1-1.8-3.5-2.1c-1.4-0.9-2.5-1.7-3.2-2.5c0.1-1.6,0.3-4.3,0.7-8.2
		c0.4-3.5,0.6-6.3,0.6-8.2c0-1.3-0.1-3.1-0.2-5.6c-0.2-2.5-0.2-4.3-0.2-5.6c0-0.4,0.1-1,0.2-1.7c1.1,0.2,2,0.8,2.7,1.9
		s1.1,2.2,1.1,3.3c0,1.4-0.2,3.4-0.6,6c-0.4,2.6-0.6,4.6-0.6,5.8L80.3,27c-0.5,1.9-1.3,4.7-2.2,8.5l0.3,0.1c0.7-1.5,1.5-3.7,2.4-6.7
		c1.1-3.4,1.6-5.5,1.5-6.6c0.7-1.3,1-3.9,1-7.8c0-4.7-3.2-7.1-9.5-7.1c-2.9,0-7.4,0.2-13.3,0.5c-6,0.3-10.4,0.5-13.4,0.5
		c-3.1,0-7.7-0.2-13.9-0.6c-6.2-0.4-10.9-0.6-14-0.6c-4.2,0-7.1,0.5-8.6,1.5c-1.5,1-2.4,2.8-2.7,5.3c0,0.4,0,3.4,0,9.2
		c0,5.2,0.3,13,0.9,23.4c0.6,10.4,0.9,18.2,0.9,23.4c0,4.8-0.3,12-0.9,21.6c-0.6,9.6-0.9,16.8-0.9,21.6c0,3,0.8,5.4,2.5,7.1
		c1.6,1.7,3.9,2.6,6.8,2.6c2.5,0,6.2-0.5,11-1.5c4.8-1,8.5-1.5,11.1-1.5c1.6,0,3.8,0.3,6.8,0.9s5.2,0.9,6.7,0.9
		c0.4,0,1.9-0.5,4.3-1.6c2.1-0.9,4-1.4,5.7-1.5c-0.7,0,1.2,0,5.8,0c0.1,0,0.3,0,0.6,0c3.6,1.2,7.9,2.4,13,3.6c0.3-0.2,0.6-0.5,1-0.9
		v-0.4c0.3-0.4,0.5-1,0.5-1.7c0-5-1-10.6-2.9-16.9c-0.1-0.5-2-6-5.7-16.3c-0.7-1.6-1.4-3.9-2.2-7.2c0-0.4-0.1-0.9-0.4-1.7
		c0-0.2-0.2-1.7-0.5-4.3c0.4-1.4,1.9-3.9,4.6-7.3h0.5c0.4,0.5,1.1,3.8,2,10c0.9,6.9,1.5,10.8,1.8,11.7l0.2-0.2v-0.5
		c0.2-2.4-0.1-5.6-0.7-9.5c-0.8-4.9-1.2-8-1.4-9.5l0.2-0.4l-0.2-0.2l0.2-0.6c-0.4-2.8,1.1-6.1,4.5-9.9h0.5l0.5,0.7
		c0.1,5.5,0.1,12.7,0,21.6c-0.1,11.3-0.1,18.5-0.1,21.7c0,9.4,0,14.5,0.1,15.2c0.1,0.7,0.3,1.8,0.7,3.4
		C85.4,120.5,85.6,121.7,85.6,122.6z M83.9,49.3c0,2.8-2.3,6.9-6.9,12.3c-4.6,5.4-6.9,9.4-6.9,12c0,3.1,2,9.6,6,19.3
		c4,9.8,6,17,6,21.6c0,3.8-1.1,5.7-3.2,5.7c-2,0-3.6-0.4-4.9-1.2c-2.2-1.3-3.6-2.1-4.1-2.3c-0.5-0.2-1.6-0.3-3.1-0.4
		c-1.9-0.1-3-0.2-3.3-0.3c-0.5,0.2-1.2,0.2-2.2,0.2c-1.6-0.1-2.3-0.1-2.2-0.1h-2.6c-0.9,0.1-1.6,0.6-2,1.3l0.1,0.6
		c0.1,0.8-0.2,1.5-0.9,1.9H51c-1.1,0-3.1-0.3-6-0.9c-2.9-0.6-5.2-0.9-6.8-0.9c-2.9,0-5.2,0.3-6.8,0.9l-0.5-0.1
		c-6.2,0.8-9.8,1.3-10.8,1.3c-2.3,0-4.4-0.6-6.4-1.8c-2.3-1.4-3.3-3.2-3.1-5.4c-0.1-0.5-0.2-1.4-0.5-2.5c0.1-1.4,0.3-8,0.8-19.7
		c0.4-8,0.5-14.5,0.5-19.7c0-4-0.1-6.6-0.3-7.8l0.1-0.5c0.1-0.7,0-1.7-0.3-3.1l0.2-1.1c0-1.9-0.1-3.2-0.4-4l0.2-0.5
		C9.8,38.8,9.2,27.4,9.2,20.1c0-2.5,0.2-4.2,0.6-5.2C9.5,11,14,9,23.4,9c3.1,0,7.6,0.2,13.6,0.5c6,0.3,10.5,0.5,13.5,0.5
		c2.2,0,5.5-0.2,10.1-0.7c4.4-0.5,7.6-0.7,9.7-0.6c2.5,0,4.3,0.5,5.4,1.6c0.8,0.9,1.3,2.3,1.4,4.2c0,2,0,4.1,0.1,6.1l-0.1,0.5
		c0.1,0.6,0.2,1.5,0.2,2.6c0,2.3-0.2,5-0.7,8.2c-0.5,3.2-0.9,5.5-1.4,6.8c0.4,0.7,2,2.2,5,4.3C82.7,44.8,83.9,46.9,83.9,49.3z
		 M82.6,49.8c-1.9-5-5.7-7.5-11.4-7.5c-1.7,0-4.2,0.3-7.3,0.9c-4.5,0.9-6.9,1.4-7.3,1.4c-1.6,0.2-4.3,2.6-8.1,7
		c-3.8,4.4-6.4,6.7-8.1,6.7c-1.9,0-3.3-1.3-4.4-3.9c-0.9-2-1.4-4.1-1.4-6.3c0-2.6,1.2-4.7,3.5-6.2c0.6-0.1,1.1-0.2,1.6-0.2
		c1.3,0,3.2,0.2,5.7,0.7c2.5,0.5,4.4,0.7,5.7,0.7c5.9,0,10.8-0.6,14.7-1.8c6.1-1.9,9.2-5,9.2-9.5c0-1.5-0.2-3.7-0.7-6.6
		c-0.5-2.9-0.7-5.1-0.7-6.6l0.1-3.4c0.4-0.8,0.5-1.9,0.5-3.3c-0.5-0.8-1.1-1.2-1.5-1.2c-2.6,0-6.2,0.2-10.5,0.7
		c-5.3,0.5-8.8,0.8-10.5,0.9l-0.4-0.2l-0.5,0.2l-0.5-0.2L50,12.4c-1.3-0.3-4.9-0.6-10.6-0.8c-6.5-0.4-10.4-0.6-11.9-0.7
		c-0.2,0.1-1.3,0.1-3.3,0c-1.9-0.1-3.1-0.1-3.5-0.2c-0.5,0.1-1.3,0.2-2.3,0.4h-0.4c-2.6-0.1-4.4,0.7-5.3,2.2c-0.7,1.9-1.3,3.7-2,5.5
		c0-0.1,0,2,0,6c0,9.1,0.6,19.6,1.9,31.3l-0.3,0.4l0.1,1.4l0.2,0.5c0.2,1.9,0.2,4.6,0,8.3c0,1.1,0.1,2.7,0.4,4.8
		c-0.2,0.7-0.2,1.8-0.2,3.3c0.1,1.5,0,2.6-0.2,3.2c0.1,0.4,0,5.3-0.4,14.8c-0.4,10.4-0.6,16.1-0.6,17c0,2.7,0.9,4.8,2.8,6.2
		c1.7,1.3,3.9,2,6.6,2c2.2,0,5.5-0.4,9.9-1.2c4.3-0.8,7.6-1.2,9.9-1.2c0.7,0,1.8,0.1,3.2,0.2c1.4,0.2,2.4,0.2,3.1,0.2
		c0.5,0,1.2,0.1,2.1,0.3c0.9,0.2,1.6,0.3,2.1,0.3l1.7-0.3c0.7-1.5,1.8-2.3,3.2-2.3h8.4c0.8,0,1.8,0.1,3.1,0.3
		c1.6,0.2,2.6,0.4,3.1,0.4c3.1,1.8,5.3,2.7,6.5,2.7c2.5,0,3.7-1.8,3.7-5.3c0-3.7-1.7-9.8-5.2-18.3c-3.8-9.3-5.9-15.5-6.3-18.7
		c0-0.6-0.1-1.4-0.4-2.5c0.2-0.4,0.2-1.1,0.2-2c0.7-1.7,3.2-5.3,7.7-10.9C80.6,55.1,82.6,51.7,82.6,49.8z M77.2,110.5
		c0,0.8-0.3,1.5-0.9,1.9c-2,0.4-3.9,0.5-5.5,0.5l-8.6-0.2c-3.4-0.1-5.7-0.5-6.9-1.3c-1-0.7-1.6-2-1.8-3.8c-0.3-2.1-0.6-4.2-0.8-6.3
		c-0.3-1.3-0.4-2.1-0.4-2.4c-0.1-0.5-0.3-1.4-0.5-2.5c-0.8-4-2.7-7.5-5.7-10.5c-2.9-3.1-6.3-5-10.2-5.7c-2.2,0.6-3.5,1-3.9,1.3
		c-1,0.6-1.7,1.7-2.1,3.3l-0.5,0.5l0.5,0.2v0.3c-0.1,3.1,1.8,4.7,5.8,4.7c0.7,0,1.8-0.1,3.2-0.2c1.4-0.1,2.4-0.2,2.9-0.2
		c3.9,0,5.8,2.6,5.8,7.6c0,0.7-0.1,1.7-0.4,3.2c-0.3,1.4-0.4,2.6-0.3,3.3c-0.4,0.6-0.5,1.5-0.5,2.6c0,1.2,0.4,2.2,1.1,3v1.4
		c-0.4,0.3-0.9,0.5-1.5,0.5c-1.4,0-3.5-0.2-6.4-0.7c-2.9-0.5-5.1-0.7-6.6-0.7c-1.5,0-3.7,0.3-6.5,0.9c-2.8,0.6-4.9,0.9-6.4,0.9
		c-2.5,0-3.8-1.7-3.8-5.2c0-0.8,0.1-2.4,0.4-4.8c0.2-2,0.3-3.6,0.2-4.7c0.4-1.1,0.9-5.9,1.4-14.1c0.5-7.4,0.7-12.5,0.7-15.3
		c0-5.2-0.5-12.9-1.5-23.2c-1-10.3-1.5-18.1-1.5-23.2c0-3.7,1.9-5.6,5.8-5.6c2.3,0,5.6,0.3,10,1c4.4,0.7,7.7,1,9.9,1
		c3.4,0,7.9-0.3,13.6-0.9c6.7-0.7,11.3-1,13.6-1.2l0.1,1.3c-0.4,0.7-0.6,1.6-0.6,2.7c0,1.2,0.3,3,0.8,5.4c0.5,2.4,0.8,4.2,0.8,5.4
		c0,4-3,5.9-9,5.9c-2.3,0-5.7-0.2-10.2-0.5c-4.5-0.3-7.9-0.5-10.1-0.5c-4.6,0-7.5,0.4-8.7,1.2L31.3,38C31.1,39.4,31,41.4,31,44
		c0,13.1,2.9,19.6,8.7,19.6c2.5,0,5-1.2,7.7-3.5c1.4-1.3,3.7-3.7,6.8-7.4c2.8-3.2,4.9-5.3,6.4-6.3c2.2-0.2,5.1-0.3,8.6-0.3
		c4.9,0,7.4,1.5,7.4,4.5c0,1.9-1.7,4.4-5.2,7.5c-3.2,2.6-6.5,5.2-9.7,7.7c-3.5,2.9-5.2,5.1-5.2,6.7c0,0.8,3.4,6.9,10.3,18.5
		C73.8,102.5,77.2,109,77.2,110.5z M53.5,45l-0.4-0.5c-1.3,0-3.3-0.1-6-0.4c-2.7-0.2-4.7-0.4-6-0.4c-1.9,0-2.9,0.8-2.9,2.4
		c0,0.9,0.5,1.7,1.4,2.2c0.1,0.4,0.2,1.6,0.2,3.5l1.4,1.4c1.8-0.6,3.9-1.8,6.4-3.7C49.5,48.2,51.5,46.6,53.5,45z"/>
	<path class="st0" d="M182.4,52.3c0,46.9-0.2,70.7-0.4,71.6c-0.2,0.7-0.7,1.3-1.6,1.9c-0.7,0-1.8,0.1-3.1,0.2
		c-1.3,0.1-2.4,0.2-3.1,0.2c-5.1,0-12.8-0.1-23.1-0.4c-10.3-0.2-18.1-0.4-23.2-0.4c-6.3,0-12.1,0.1-17.3,0.4
		c-0.5-0.2-1.4-0.3-2.7-0.2c-1.3,0-2.2-0.1-2.9-0.3l-0.6,0.4c-1.3,0-3.1-0.1-5.2-0.4l-0.7-0.7c-0.8-14.8-0.8-29.9-0.2-45.5l-0.4-0.8
		V33.7c0-1.7-0.1-4.6-0.2-8.7c-0.1-3.9-0.2-6.9-0.2-9.1c0-3.3,0.2-6.1,0.5-8.5c0.1-1.1,0.6-1.7,1.5-2c4-0.4,8-0.7,12.1-1.2
		c1.2,0.3,2.7,0.5,4.5,0.6c1.3,0.1,2.9,0,5-0.1c2.5-0.1,4.1-0.1,4.7-0.1c6.1,0,15.1,0.1,27.2,0.3c12.1,0.2,21.2,0.3,27.4,0.3
		l1.8,1.1c0.1,2.3,0.2,10.4,0.2,24.1L182.4,52.3z M180.9,37.8V10.7l-0.4-0.9l0.2-0.5c-0.2-1.5-2.4-2.3-6.6-2.3c-0.9,0-2.1,0-3.5,0.1
		c-1.4,0.1-2.3,0.1-2.5,0.1c-20.2,0-31-0.2-32.6-0.6L134.7,7c-2.1,0-3.2,0-3.2,0c0,0-2.9-0.1-8.8-0.3c-5.9-0.2-9.3-0.3-10.2-0.3
		c-7.5,0-11,0-10.6,0.1c-0.4,0.1-0.9,0.3-1.4,0.5c-0.5,0.2-0.8,0.5-0.9,0.9c-0.4,0.9-0.5,19.7-0.5,56.2c0,5.3,0.1,12.7,0.2,22.1
		c0.1,10.6,0.2,18,0.3,22.1c-0.2,3.1-0.2,7.6,0.1,13.5c0.1,1,0.8,1.6,2,1.9c2.6,0.5,6.1,0.7,10.4,0.7c2,0,5-0.1,8.9-0.2
		c3.9-0.2,6.6-0.2,8.1-0.2h22.2c2.8,0,7.1,0.1,12.7,0.3c5.7,0.2,9.9,0.3,12.8,0.3c1.5,0,2.5-0.5,3-1.3c0.5-0.9,0.8-4.8,0.9-11.6
		c-0.1,10.2-0.1,5.9-0.1-12.9c0-3.7-0.1-5.7-0.3-6c0.1-0.5,0.2-8.7,0.3-24.5c0.1-16,0.1-24.6-0.1-25.7
		C180.8,41.8,180.9,40.2,180.9,37.8z M174.3,112c-0.1,0.8-0.4,1.8-1,2.9c-0.8,1.4-1.3,2.3-1.4,2.7c-0.8,1.1-1.6,2.3-2.3,3.5
		c-0.8,1.2-2.2,1.8-4.1,1.8c-3.7,0-9.2-0.1-16.6-0.2c-7.4-0.1-12.9-0.2-16.6-0.2c0.7,0-2.9-0.1-10.6-0.3c-5.7-0.2-8.9-0.2-9.5,0.1
		c-1.5-0.4-4.9-0.4-10.1-0.2l-0.8-0.9v-2.1c0-0.7-0.1-1.3-0.2-2.1c0.2-1.2,0.4-3.2,0.4-6.1c0-2.5-0.1-6.3-0.4-11.4
		c-0.2-5.1-0.4-8.3-0.4-9.6c0-29.8,0-37.8-0.1-24c0.1-11.3,0.5-18.8,1.3-22.3c1.1-4.4,2.2-8.9,3.3-13.3c1.7-7,2.6-11,2.6-12.1
		c0-1.4-0.7-3.3-2.2-5.8l-0.1-0.5l0.4-0.6c1,0.3,2.4,0.4,4.1,0.4c2.1-0.1,3.5-0.1,4.2,0l0.4-0.2c1,0.1,2.6,0.2,4.7,0.4l0.3,0.7v0.6
		c-5.7,5.7-9.9,12.1-12.6,19.2c-2.1,5.6-3.7,13-4.7,22.3c0,2.7-0.2,6.8-0.5,12.3l0.2,0.7c-0.2,0.5-0.3,1.3-0.3,2.3
		c0,3.1,0.8,7.8,2.5,14c1.5,5.5,2.8,9.5,4,12c0.5,1,3,5.3,7.6,12.8c-3.8,2.2-6.4,3.8-7.7,4.9c-3.4,2.5-5.1,4.8-5.2,6.8
		c1.8,0.2,9.3,0.3,22.5,0.3c1.1,0,3.9,0.1,8.2,0.4c4.3,0.2,7.5,0.4,9.5,0.4c2,0,3.5-0.1,4.5-0.3h0.3l0.3,0.1
		c8-0.8,12.5-1.4,13.6-1.7c3.2-0.9,7.2-3.4,12-7.4L174.3,112z M179.2,52.7c-0.1,1.8-0.1,3.1-0.1,3.9v38.6c0,0.8,0,3.6,0.1,8.4
		c0.1,3.5,0,6.3-0.1,8.5c-0.1,3.1-0.2,5.9-0.5,8.3c-1,1.3-1.9,2-2.8,2.2c-1.3,0-2.5,0-3.8,0h-1.3l-0.3-0.7c5-6.3,7.5-16.1,7.5-29.3
		c0-2.2-0.1-5.5-0.2-9.9c-0.2-4.4-0.2-7.6-0.2-9.6c0-2.9,0.1-5.5,0.3-7.8l-0.2-0.4c0-0.2,0-0.5,0.1-0.9c0.1-0.4,0.1-0.7,0.1-0.9
		l-0.1-2.5l-0.2-0.2l0.2-0.5c-0.2-0.3-0.2-0.8-0.2-1.6l0.2-1.8c0-0.8-0.1-2.1-0.2-3.9c-0.2-1.7-0.2-3-0.2-3.9
		c-0.8-2-1.6-3.2-2.4-3.7c-0.8-0.5-2.2-0.7-4.3-0.7v-1.2c1-1.2,1.8-2.6,2.3-4.3c0.6-2,1-3.2,1.3-3.6c0.1-0.9,0.2-2.1,0.2-3.7
		c0-1-0.1-2.6-0.4-4.7c-0.2-2.1-0.4-3.7-0.4-4.7c0-2.2,0.5-4.3,1.4-6.5c1-2.2,1.4-3.4,1.4-3.6l-0.9-1.3c-0.7-0.2-2.9-0.4-6.7-0.4
		c-2.5-0.1-6,0-10.4,0.1c-4.7,0.1-7.2,0.2-7.6,0.2c1,0-3.8-0.1-14.1-0.2c-8-0.1-12.2-0.1-12.5,0l-1.3-0.2c-1.4,0.3-3.1,0.4-5,0.4
		c-1.6,0-3.9-0.1-7-0.4c-3.1-0.3-5.4-0.4-6.8-0.4l-1.5,0.8c0.1,0.7,0.6,2,1.7,3.8c1,1.8,1.6,3,1.6,3.5c0,0.4,0,0.9-0.1,1.6
		c-0.1,0.7-0.1,1.2-0.1,1.6c-1.3,4.6-2.8,10-4.5,16l-0.6-0.4V10.9c0-1.1,0.8-2.1,2.3-2.9l1.7-0.1c5.7-0.2,9.6-0.1,11.6,0.4
		c0.5-0.1,2.5-0.1,6.2,0c3.4,0.1,5.6,0.2,6.7,0.4c0.8-0.2,2-0.4,3.4-0.4c4.4,0,11,0,19.8,0.1c9.2,0.1,15.8,0.1,19.7,0.1
		c0.4,0.2,1,0.3,1.6,0.3c0.2,0,0.6,0,1.2-0.1c0.5,0,0.9,0,1.2,0c1.5,0,2.5,0.5,3,1.5c0.2,1.6,0.3,3.4,0.3,5.4
		c0,8.4-0.1,13.1-0.4,14.1c-0.5,2.4-2.6,6.5-6.3,12.2l0.1,0.3c0.5,0,1.1-0.2,1.8-0.7c0.7-0.4,1.2-0.7,1.5-0.8c0.4-1,1.2-1.6,2.4-1.8
		c0.3,0.1,0.6,0.6,0.8,1.4c0.1,1.7,0,4.3-0.2,7.7l0.3,0.5C179.3,49.6,179.3,51,179.2,52.7z M176.6,56.7c0,3.7-0.1,11.1-0.2,22.2
		c-0.1,9.2-0.2,16.6-0.1,22.1c-0.1,0.4-0.2,1-0.4,1.8l0.2,0.2c-0.4,5.6-4.2,9.9-11.2,13c-5.6,2.5-11.7,3.8-18.1,3.8
		c-8.9,0-16.8-2.4-23.5-7.1s-11.8-11.3-15.2-19.7c-1.3-4.7-2.8-9.7-4.4-14.9c-0.5-4.3-0.8-6.8-0.8-7.6s0.1-1.3,0.2-1.6
		c-0.4-0.6-0.5-1.9-0.5-4c0-10.6,1.6-20.5,4.7-29.8c4.1-12.2,10.1-19.6,18.1-22.2c2.5-0.8,6.6-1.2,12.2-1.2l33.3,0.3
		c0.5,0.2,0.7,0.7,0.8,1.3c-0.1,0.2-0.3,1-0.7,2.5c-0.3,1-0.5,1.9-0.5,2.6c0,1.6,0.3,4,0.9,7.2c0.6,3.2,0.9,5.6,0.9,7.2
		c0,4.1-1.7,8.1-4.9,11.8l0.4,0.4c4.2,0.4,6.8,1.4,7.8,3C176.2,49.2,176.6,52,176.6,56.7z M175.2,53.1c0-2.6-1.1-4.5-3.3-5.8
		c-0.6-0.1-1.5-0.2-2.7-0.4l-0.3,0.2c-4.1,0-8.3,0.5-12.5,1.4l-0.8-0.2c-2.3,0.1-5.6-0.1-9.7-0.5c-4.6-0.4-7.8-0.5-9.8-0.5
		c-1.7,0-2.9,1.7-3.8,5c-0.6,2.4-0.9,4.9-0.9,7.4c0,12.4,3,18.6,8.9,18.6c0.8,0,1.9-0.1,3.4-0.2c1.5-0.1,2.6-0.2,3.3-0.2
		c0.8,0,1.6,0.3,2.2,1c0.3,0.8,0.4,1.6,0.4,2.4c0,3.5-1.7,5.3-5.2,5.3c-4.7,0-8.4-2.8-11.2-8.5c-2.3-4.7-3.5-9.6-3.5-14.9
		c0-5.3,0.2-8.8,0.5-10.5c0.8-4.1,2.8-6.6,5.8-7.6c9.5,0.8,16.3,1.3,20.6,1.3c3.4,0,6.3-0.8,8.7-2.5c2.8-1.8,4.4-4.3,5-7.5l0.3-0.4
		c0.4-1.6,0.5-3,0.5-4.4c0-0.5-0.1-1.3-0.3-2.3c-0.2-1-0.3-1.7-0.3-2.2c-0.2-1-0.6-2.5-1.2-4.6c0-0.5-0.1-1.3-0.2-2.3
		c-0.1-1-0.2-1.7-0.2-2.1c0-0.5,0.2-1.1,0.5-1.9c0.3-0.8,0.5-1.4,0.5-1.8c0-1-0.6-1.4-1.9-1.4c-2,0-5,0.2-9.1,0.4
		c-4.1,0.3-7.1,0.5-9.2,0.5c-5.3,0-10.4-0.2-15.4-0.7c-0.7,0.2-2.7,0.5-6.1,0.9c-2.3,0.2-4.4,0.9-6.2,2.1
		c-5.8,3.5-10.4,10-13.9,19.6c-3.1,8.3-4.6,16.4-4.6,24.4c0,8,0.5,13.8,1.3,17.6c0.2,0.8,0.2,1.4,0.2,1.8c3.3,13.1,8,22.6,14.1,28.6
		c7,6.8,16.9,10.3,29.6,10.3c4.6,0,9.5-1.3,14.9-3.8c6.1-2.9,9.6-6.2,10.7-10.1c0.2-0.8,0.3-2.4,0.3-4.8c0-1.5-0.2-3.5-0.5-6.1
		c-0.5-3.1-0.8-5.2-0.8-6.1c-0.2-2.8-0.4-7-0.4-12.6c0-3.2,0.6-9.3,1.9-18.5c-0.2-0.4-0.2-1-0.2-1.6
		C175.2,53.8,175.2,53.3,175.2,53.1z M132.4,119.5c-2,0.1-4.5,0.2-7.5,0.2c-11.2,0-17.9-0.1-20-0.4c-0.1-0.9,1.9-2.4,5.8-4.4
		c3.6-1.9,6.1-3,7.5-3.2c2.2,1.7,4.3,3.4,6.6,5C127.6,118.5,130.1,119.5,132.4,119.5z M170.2,103.4c0,3.2-3.5,6-10.6,8.2
		c-5.6,1.8-10.5,2.7-14.7,2.7c-11.2,0-20.2-5.2-27-15.7c-5.8-9.1-8.7-19.5-8.7-31.3c0-6.8,1.3-14.9,3.9-24.5
		c3-11.4,6.6-18.6,10.9-21.5c2.5-1.7,5.5-2.6,9-2.6c2.2,0,5.5,0.4,10,1.1c4.4,0.7,7.7,1.1,9.9,1.1c1.4,0,3.4-0.3,5.9-0.9
		c2.5-0.6,4.3-0.9,5.5-0.9l1.4,0.8c0,0.5-0.1,1.2-0.4,2.2c-0.2,1-0.4,1.7-0.4,2.2c0,0.2,0,0.6,0.1,1c0.1,0.4,0.1,0.7,0.1,0.9
		c1,2.2,1.4,4.3,1.4,6.3c0,3.7-1.5,6.2-4.4,7.3c-1.7,0.7-4.7,1-9.2,1c-1.9,0-4.8-0.2-8.6-0.5c-3.8-0.4-6.7-0.5-8.6-0.5
		c-3.8,0-6.7,1.9-8.6,5.8c-1.4,2.9-2.2,6.5-2.2,10.9c0,8.7,1.5,16.3,4.5,22.7c3.8,8.4,9.6,12.6,17.4,12.6c2.9,0,4.8-0.8,5.8-2.4
		c0.7-1,1.2-3.1,1.5-6.4l-0.2-0.5c0.5-1.9,0.4-4.2-0.2-6.8c-0.4-2-2.2-3-5.3-3c-0.8,0-2,0.1-3.4,0.2c-1.4,0.2-2.4,0.2-2.9,0.2
		c-3.8,0-5.7-2.1-5.7-6.3c0-1,0.3-2.5,0.9-4.5c0.6-2,0.9-3.5,0.9-4.5c0-1.1-0.2-2.1-0.6-3.1v-0.9c-0.1-0.9,0.4-1.4,1.4-1.4
		c1.3,0,3.3,0.3,6.1,0.8c2.7,0.5,4.8,0.8,6.2,0.8c1.4,0,3.5-0.2,6.3-0.7c2.7-0.5,4.8-0.7,6.2-0.7c1.6,0,3,0.3,4.3,0.8
		c1.3,1.3,2,3,2,5c0,2.5-0.4,6.1-1.1,11c-0.7,4.9-1.1,8.6-1.1,11.1c0,8,0.8,14.9,2.3,20.5C170.2,100.7,170.2,101.5,170.2,103.4z
		 M148.1,81.6c0-1.4-1.2-2.2-3.5-2.2c-2.2,0-3.9,0.8-5,2.4c0.8,1.8,2.9,2.7,6.1,2.7C147.3,84.6,148.1,83.6,148.1,81.6z"/>
	<path class="st0" d="M279.2,126.2c-0.3,0.4-0.8,0.9-1.5,1.4c-0.9,0.1-2.2,0.1-4,0l-1.1,0.3l-0.5-0.3c-1.6-0.1-4.1,0-7.3,0.3
		c-1.4-0.3-3.3-0.4-5.6-0.3c-3.6,0.2-5.4,0.3-5.5,0.3c-1,0-1.6,0-2,0c-1,0.2-2.4,0.2-4.1,0c-2.3-0.2-3.8-0.3-4.2-0.3h-45.8
		c-2.1,0-3.5-0.3-4.2-1c0-2-0.5-4.8-1.6-8.2c-0.4-1.2-0.5-8-0.5-20.3c0-6.7,0.2-19.2,0.5-37.5c0.2-15.8,0.3-28.3,0.2-37.5
		c0.1-0.1,0.1-0.2,0-0.4c0.2-1.9,0.2-4.5,0-8v-0.7v-0.9c0-4.7,0.4-7.6,1.1-8.9c0.7-1.2,2.5-1.8,5.2-1.8c0.5,0,1.5,0,3.1,0.1
		c1.6,0.1,2.9,0.1,4,0.1c-1.1,0,3.8,0,14.6,0.1c8.8,0.1,15.9,0.1,21.4,0c7.7-0.1,12.3-0.4,13.9-0.7l0.6,0.5l1-0.5
		c0.3,0.2,0.5,0.2,0.5,0c0.2,0.1,2.7,0.1,7.4,0c4.7,0,7.1,0,7.3,0c1,0.1,2.4,0.2,4.4,0.5l0.6,0.6c0,1.3,0.1,3.1,0.5,5.6l-0.3,0.5
		c0.1,1.4,0.1,2.2,0.1,2.2c0.2,1.3,0.4,2.9,0.4,4.9c0,1.7-0.1,4.4-0.4,8.2c-0.2,3.8-0.4,6.5-0.4,8.2c0,1.9,0.1,3.5,0.3,4.7l-0.1,0.6
		c0.3,3.8,0.5,11.3,0.5,22.4c0,11.6-0.2,18.4-0.6,20.4l0.4,1.2c-0.3,1.8-0.5,6.3-0.5,13.5c0,7.1,0.1,12,0.3,14.7
		c-0.2,0.5-0.3,1.4-0.3,2.5c0,0.4,0.1,0.8,0.3,1.3c0,0.6,0,1.5,0,2.8C278,119.9,278.7,123.1,279.2,126.2z M277.1,123.1
		c-1.1-4.5-1.7-8.9-1.7-13.2c0-10.4,0.1-25.9,0.3-46.7c0.2-20.8,0.3-36.3,0.3-46.6c0-1,0-2.2,0.1-3.7c0.1-1.5,0.1-2.6,0.1-3.2
		c0-2-0.4-3.4-1.2-4.2c-1-1.1-2.7-1.6-5.2-1.6c-5.4,0-13.5,0.1-24.3,0.2c-10.8,0.1-18.9,0.2-24.3,0.2c-0.7,0-1.9,0-3.6,0.1
		c-1.7,0-2.9,0.1-3.8,0.1c-1.3-0.1-2.5-0.2-3.6-0.4c-1.1,0.1-2.9,0.2-5.1,0.4l-0.6-0.2c-4,0.1-6,0.2-6.1,0.2c-3.1,0.3-4.7,1-4.9,2.1
		c-0.3,1.3-0.5,4.7-0.5,10c0,3.7,0,8.9,0.1,15.4c0.1,7.2,0.2,11.1,0.2,11.8l0.1,68.8c0,0.7,0.1,1.8,0.3,3.6c0.2,1.7,0.3,3,0.1,3.7
		c0.4,0.8,0.5,1.7,0.5,2.6l0.4,0.8c0,1.6,0.5,2.5,1.4,2.9c1,0.4,11.7,0.5,32.3,0.5c4.6,0,11.5,0,20.7-0.1c9.2-0.1,16.1-0.1,20.7-0.1
		C274.3,126.2,276.6,125.2,277.1,123.1z M275.7,123.2l-0.4,1.2c-0.4,0.2-2.3,0.4-5.7,0.6c-3.4,0.1-5.2,0.1-5.6,0
		c-2.5,0.2-8.1,0.4-16.8,0.4h-45c-1.3,0-2.9-0.1-4.8-0.2c-0.4-0.2-0.6-0.6-0.8-1.2c-0.2-0.8-0.4-1.3-0.4-1.4v-0.8
		c-0.1-0.7-0.4-1.6-0.8-2.9v-0.5c-0.4-0.6-0.5-8.3-0.5-23.2l-0.4-0.6c0.2-0.3,0.4-0.9,0.4-1.9c0.1-0.7,0.1-1.6,0-2.7
		c-0.1-1.3-0.1-2-0.1-2.2c0-0.1,0.1-1.7,0.2-4.7c0.1-1.9,0.1-3.5-0.2-4.8c0.2-0.4,0.3-5.3,0.3-14.9c0-36.7,0-54.9,0.1-54.7l0.2-0.6
		l-0.2-0.4c0.3-1.6,2-2.3,5.2-2.3c0.7,0,1.5,0,2.5,0.1c1,0.1,1.6,0.1,1.9,0.1c0.2,0,1.4-0.1,3.7-0.3c1.4-0.1,2.6,0,3.6,0.2l0.9-0.2
		c0.4,0.1,8.7,0.1,25.1,0C257.9,5.1,266.9,5,265.1,5c1,0,2.4,0,4.2,0.1c1.9,0.1,3.2,0.1,4.1,0.1l1.1,0.6c0,0.4,0,1,0.1,1.8
		c0.1,0.8,0.1,1.4,0.1,1.8c0,0.7-0.1,1.3-0.2,1.9l0.2,0.6c-0.2,0.7-0.3,1.5-0.2,2.2l0.2,0.4l-0.2,0.5l0.2,0.9c0,0.8,0,1.7,0,2.9
		c-0.2,16.5-0.3,29.3-0.3,38.3c0,0.4-0.1,2.6-0.3,6.7c-0.1,2.7,0,4.9,0.2,6.7l-0.2,0.5c0.2,0.9,0.3,3.5,0.2,7.9
		c-0.2,6.4-0.3,9.3-0.3,8.7c0,16.1,0.1,25.9,0.3,29.3C275.2,118.7,275.7,120.8,275.7,123.2z M274.3,120.2c0.1-1-0.1-1.9-0.5-2.7
		c-0.2-3.9-1.2-10.1-3.1-18.5c-1.7-7.9-2.6-14.1-2.6-18.5c0-2.7,0.5-6.7,1.5-12c1-5.3,1.5-9.1,1.5-11.5c0.2-0.3,0.4-0.7,0.4-1.3
		c0-0.2,0-0.6,0.1-1c0.1-0.4,0.1-0.7,0.1-0.9c0.3-0.5,0.6-2.1,0.9-4.7c0.3-2.6,0.4-4.7,0.4-6.5c0-0.7,0-1.2-0.1-1.5
		c0.1-0.1,0.2-0.4,0.4-1.2c-0.2-0.8-0.3-6-0.1-15.4c0.2-12.5,0.3-18.2,0.3-16.9c0-1-4.4-1.4-13.2-1.4c-3.3,0-8.2,0-14.8,0.1
		c-6.5,0.1-11.5,0.1-14.8,0.1c-12.8,0-22.7,0.1-29.6,0.2c-2.9,0.1-4.5,0.6-5,1.5c0.1,0.3,0,0.7,0,1.1c-0.1,0.5-0.1,0.8-0.1,0.9
		c0,6.1,0.7,12,2,17.5c1.3,5.6,2,18.7,2,39.3c0,5.5-0.3,12.9-1,22.2c-0.7,11.2-1.6,18.6-2.5,22.1l0.2,0.5c0,0.5-0.1,1.3-0.3,2.4
		s-0.3,1.9-0.3,2.4c0,4.3,1.4,6.5,4.2,6.5c2.5,0,4.3-0.3,5.4-0.9h0.4c2.4,0,7-0.7,13.8-2c6.8-1.3,11.8-2,15.1-2
		c8.9,0,21,1.7,36.3,5.1c1.4,0.4,2.4,0,3-1.2L274.3,120.2z M271.8,115.2c0,3.1-1.4,4.7-4.3,4.7c-4,0-10-0.5-18-1.6
		c-8-1.1-14-1.6-18-1.6c-3,0-7.4,0.6-13.3,1.7c-5.9,1.1-10.3,1.7-13.1,1.7c-1.3,0-2.5-0.1-3.6-0.4c-1-0.7-1.9-1.8-2.7-3.2l-0.4-1.4
		c0.2-5.2,0.6-10.8,1.4-17l-0.2-0.5c1.6-8.3,2.4-19.4,2.4-33.1c0-11.1-0.2-18.2-0.7-21.2c-0.2-1.4-0.2-2.2-0.2-2.4
		c-1.9-14.3-2.9-23.1-2.9-26.2c0-2,0.1-3.2,0.4-3.7c0.2-0.5,1.1-1,2.7-1.6c-0.6,0,1,0.1,4.8,0.2c2.3,0.1,3.8,0.1,4.5-0.2l0.5,0.2
		c1.1,0,2.8-0.1,5.1-0.4l0.5,0.2l0.2-0.2l0.5,0.2l0.2-0.2l0.7,0.2c0.6-0.1,1.2-0.2,1.7-0.2c3.8,0,6.6,2.3,8.5,7
		c1.4,3.5,2.2,7.6,2.2,12.2c0,2.3-0.3,5.7-0.8,10.2s-0.8,7.9-0.8,10.1c0,0.9-0.4,4.6-1.2,11c-0.8,6.4-1.2,9.8-1.4,10.1l0.1,0.5
		c-0.4,2.9-0.6,6.1-0.6,9.5c0,5.3,2.3,8,7,8c2.5,0,4.4-0.9,5.8-2.6c1.4-1.7,2.2-3.9,2.2-6.4c0-2.3-0.1-5.7-0.3-10.3
		c-0.2-4.6-0.3-7.9-0.3-10.2c0-1.4,0.2-2.5,0.5-3.2c0.1-3.5,1-6.3,2.8-8.5c1.9-2.5,4.5-3.8,7.8-3.8c8.7,0,14.8,0.1,18.5,0.2
		c0.7,0.3,1.1,1,1.1,2.1c0,0.4-0.1,1.1-0.2,2.1l0.2,0.5c-0.1,0.5-0.2,1.3-0.5,2.2c0,1.2-0.2,2.4-0.5,3.6l0.1,0.5
		c0,0.3,0,0.7-0.1,1.2c-0.1,0.5-0.1,0.8-0.1,1.1l-0.4,0.5c0.1,0.7,0,1.4-0.4,2.2v0.5c0,2.1-0.5,5-1.5,8.6c-0.8,2.7-1.2,8.5-1.2,17.4
		c0,1.6,0.4,3.9,1.2,7c0.8,3.1,1.2,5.4,1.2,6.8c0.1,0.5,0.4,1.4,0.7,2.4v0.6c0.1,0.8,0.3,1.9,0.8,3.4c0.1,1,0.3,2.6,0.8,4.8
		S271.8,114,271.8,115.2z M269.7,111c-1-4.5-2-9-3.1-13.5c-1-5.3-1.5-9.8-1.5-13.7c0-8.3,0.5-14.2,1.5-17.9l-0.1-0.4
		c0-0.8,0.2-2.2,0.7-4c0.5-1.8,0.7-3.2,0.7-4.2c0-1,0.2-2.5,0.7-4.6c0.4-2.1,0.7-3.6,0.7-4.7c0-2.2-0.9-3.3-2.6-3.3
		c-1.9,0.8-3.7,1.3-5.6,1.3c-1.2,0-3-0.2-5.3-0.7c-2.3-0.5-4-0.7-5.2-0.7c-2.3,0-4.4,1-6.3,3c-1.9,2-2.8,4.2-2.7,6.4
		c-0.4,0.7-0.5,1.8-0.5,3.3c0,3.2,0,4.7,0,4.5c0.2,1,0.4,2.2,0.4,3.9c0.3,0.8,0.8,3.6,1.4,8.3c0.6,4.2,1.2,6.8,1.8,7.7v0.7
		c0.2,0.8,0.4,1.6,0.4,2.3c0,2.5-1.3,3.9-3.9,4.4c-0.5,0.1-2.8,0.2-6.8,0.2c-4.3,0-7-0.2-7.9-0.5c-2-0.8-3-3.1-3-6.8
		c0-0.8,0.1-1.9,0.2-3.5c0.1-1.6,0.2-2.7,0.2-3.5l0.3-0.7c0-0.2,0.3-2.7,1-7.5c0.8-6.4,1.7-12.8,2.5-19.3c0.9-7.4,1.3-13.9,1.3-19.3
		c0-3-0.2-5-0.5-5.9c0-2.9-1-5.5-3-7.9c-2-2.4-4.4-3.6-7.2-3.6c-1.8,0-4.8,0.7-8.9,2.1c-1.3-0.1-3.4-0.5-6.2-1.2
		c-0.9-0.3-1.4-0.5-1.6-0.5c-1.4,0-2.2,1.3-2.2,3.8c0,3.3,0.4,7.6,1.1,13c0.9,7,1.5,11.3,1.6,13l-0.2,0.5c0.1,1.3,0.2,2.9,0.2,4.9
		c0,0.7,0,1.9,0,3.4c0,1.6,0,2.7,0,3.4c0,2.6,0.2,4.7,0.5,6c-0.3,0.9-0.4,2.3-0.3,4.3l0.3,4.4c0,5.9-0.1,9.8-0.3,11.4v0.4
		c0,3.2-0.5,8-1.4,14.4c-0.9,6.4-1.3,11.2-1.3,14.4c0,1.4,0.4,3.5,1.2,6.5c1.1,1.4,2.8,2.2,5.3,2.2c1.9,0,5-0.4,9.5-1.3
		c4.1-0.7,7.3-1,9.4-0.9c2.9,0.2,5.5,0.2,7.7-0.2c0.2,0.1,2.5,0.2,6.9,0.2c1.4,0,9.3,0.5,23.9,1.4c1.3-0.4,2.5-0.8,3.8-1.2
		c1.1-0.5,1.8-1.7,2.2-3.3l-0.2-0.2L269.7,111z M266.3,110.5c0,0.2-0.3,0.5-1,0.9c-0.7,0.3-1.1,0.5-1.4,0.5c-2.9,0-7.3-0.2-13.2-0.7
		c-5.9-0.5-10.3-0.7-13.3-0.7c-4,0-9.2,0.4-15.5,1.1c-8,1-13.2,1.6-15.5,1.7c-1.1-0.4-1.7-1.2-1.7-2.3c0-4.9,0.5-12.3,1.3-22.3
		c0.9-9.9,1.4-17.4,1.4-22.4c0-10.4-0.7-22.2-2.2-35.5c-0.1-0.8-0.5-2.5-1.1-5.3c-0.5-2.2-0.7-4-0.6-5.3l-0.4-0.6l0.4-1.3h0.5
		c0.5-0.1,1.3,0,2.3,0.2c1,0.2,1.7,0.3,2.2,0.3c1.1,0,2.8-0.3,5.1-0.8c2.2-0.5,4-0.8,5.2-0.8c2,0,3.6,0.9,4.7,2.6
		c0.9,1.5,1.4,3.3,1.4,5.5l0.3,0.8v3l-0.2,0.8l0.2,0.5c0,1.1-0.1,2.8-0.3,5.1l0.2,0.4c-0.1,1.7-0.2,4.2-0.5,7.7
		c-0.4,2.5-0.9,6.9-1.4,13c-0.5,5.6-1.1,9.9-1.6,13l0.2,0.4c-1.4,5.2-2.1,10.6-2.1,16c0,4.3,1.3,7.1,3.8,8.4
		c1.6,0.8,4.9,1.3,9.8,1.3l1.3-0.3l0.5,0.2c3.4-0.2,6.8-0.4,10.2-0.6c3.2-0.7,4.9-3.2,4.9-7.5c0-1.9-0.6-5.3-1.7-10.4
		c-1.1-4.9-1.7-7.9-1.5-9.2c-0.5-1.1-0.7-2.2-0.5-3.5c-0.4-1-0.6-3.1-0.6-6.5c0-1.9,0.4-3.5,1.3-4.9c1-1.7,2.4-2.5,4.1-2.5
		c1.3,0,3.2,0.2,5.8,0.5c2.5,0.4,5,0.5,7.3,0.5l0.8,0.3v1.3c0.1,2.1-0.2,4.9-0.9,8.4c-0.8,4-1.3,6.7-1.3,8.3
		c-0.7,1.4-1.1,4.1-1.1,8.2c0,4.4,0.8,10.2,2.4,17.4C265.5,102.5,266.3,107.6,266.3,110.5z M271.5,34.5c0,4.4-3.1,6.7-9.3,6.7
		c-1,0-2.3,0-4.1-0.1c-1.8-0.1-3.1-0.2-3.8-0.2h-3.4l-0.9-0.5v-0.5c1.4-1.9,3.8-2.8,7.4-2.8c0.5,0,1.2,0.2,2.1,0.7
		c0.9,0.4,1.6,0.7,2.2,0.7c1.1,0,1.7-0.8,1.7-2.4c0-0.9-0.4-1.7-1.2-2.4c-0.8-0.7-1.7-1-2.6-1c-6.1,0-12.1,3.9-17.9,11.8
		c-5.5,7.4-8.2,14.4-8.2,20.8c0,5.2,1.2,8.8,3.6,11l0.2,1.2c0,1.1-0.5,2.2-1.4,3.1c-1,0.9-2,1.4-3.2,1.4s-2.1-0.6-2.6-1.7
		c-0.5-1.1-1-2.2-1.5-3.2c0.1-0.3,0.1-0.6,0-1c-0.1-0.5-0.2-0.8-0.2-0.9c0-8.2,1.1-15.2,3.2-21.2c2.5-6.3,5-12.6,7.5-18.8
		c0.4-1,1.1-5,2.3-12c-0.6-2.7-1-4.3-1.3-4.9c-0.8-1.9-2.1-2.9-3.8-2.9c-1.1,0-2,0.4-2.6,1.3s-1,1.9-1,3.1c0,1,0.4,1.9,1.1,2.7
		c0.7,0.8,1.6,1.2,2.6,1.2c0.8,0.8,1.2,1.8,1.2,3c0,1.9-0.2,3.3-0.5,4.2v1c-0.6,1.3-1.4,3.7-2.3,7.2c-0.8,3.1-1.9,5.6-3.1,7.5
		l-0.6-0.4l0.2-2.2c1-3.4,1.4-8,1.4-13.9c0-9.5-2.1-16.3-6.3-20.5c11.8-0.5,24.9-0.7,39.3-0.7c3.2,0,4.8,0,4.8,0
		c-0.1,1.1-1.6,2.8-4.6,5c-2.1,1.4-4.2,2.8-6.3,4.2c-4.6,3.6-9,7.9-13.3,12.8C241.5,36,238,41,235.7,45.6v0.5
		c-0.7,1.4-1.7,4-3.1,7.9c-1.4,4.3-2.1,6.8-1.9,7.6c-0.7,2.2-1,5.6-1,10.2c0,0.4,0.2,0.9,0.5,1.5c0.4,0.7,0.7,1,1,1
		c0.5,0,0.9-0.1,1.1-0.5c-0.2-2.9-0.3-4.9-0.1-5.9l-0.2-0.5c0-0.6,0.1-1.5,0.5-2.7c1.1-16,11.7-30.5,31.7-43.7
		c2.6-1.7,4.5-2.6,5.5-2.6c0.4,0,0.9,0.2,1.4,0.6c0.2,1.6,0.4,2.9,0.4,3.8V34.5z"/>
	<path class="st0" d="M388.8,114.3c-0.2,0.7-0.3,1.3-0.1,1.9l-0.1,0.5c0,3.8,0,5.6-0.1,5.5c-0.3,1.1-0.5,1.7-0.7,2
		c-0.4,0.4-1,0.6-2,0.8c-2.6,0.5-6.6,0.6-12.2,0.4c-8.6-0.3-13-0.5-13.2-0.5c-2.8,0-5,0.2-6.6,0.5c-0.6-0.2-2.9-0.3-7-0.1
		c-3.7,0.1-6.2,0.2-7.5,0.4l-0.5-0.2c-1,0.2-2.4,0.3-4,0.2c-2.5-0.2-3.8-0.3-4-0.3c-3.5,0-8.7,0.1-15.5,0.3s-12,0.3-15.4,0.3
		c-3.5,0-5.4-0.1-5.8-0.3c-0.5,0.1-0.9,0.2-1.4,0.2c-2.8,0-4.1-2-4.1-5.9c0-0.5,0-1.2,0.1-2.2c0.1-1,0.1-1.7,0.1-2.1
		c0-26.5-0.2-40.2-0.5-41.3c0.1-0.2,0.1-1.1,0.1-2.7c0-1.7,0-2.7-0.1-3l0.2-0.5c-0.2-1.1-0.4-3.4-0.4-6.9c0-2,0-8.2-0.1-18.5
		c-0.1-7.5-0.1-13.6,0-18.5c0.1-6.8,0.4-12.9,0.8-18.4c0.5-0.8,1.3-1.3,2.3-1.4c0.1,0,1,0,2.9,0c9.7,0,24.2-0.1,43.6-0.5
		c19.4-0.3,34-0.5,43.7-0.5c3.1,0,4.8,0.1,5.1,0.2c1.3,0.4,2,1.8,2,4c0,2.9-0.1,7.3-0.2,13.1c-0.2,5.8-0.2,10.2-0.2,13v23.8
		c0,3.7,0.1,6.1,0.4,7.2c-0.5,2.3-0.7,6.4-0.7,12.4c0,4.4,0.1,11.1,0.5,20.2c0.3,8.6,0.4,14,0.4,16.1L388.8,114.3z M387.6,117.4
		c0-4.6-0.1-11.6-0.2-20.9c-0.2-9.3-0.2-16.3-0.2-21c0-8.9-0.1-15.2-0.4-19.1l0.1-0.5l-0.1-0.2c0.1-0.5,0.1-6.1-0.1-16.7
		c-0.2-12.8-0.3-19.1-0.3-18.8c0-1.4,0.1-3.5,0.2-6.2c0.1-2.8,0.2-4.8,0.2-6.2c-0.1-0.5-0.1-0.9-0.2-1.4s-0.3-0.7-0.8-0.9
		c-0.9-0.2-6.9-0.4-17.9-0.4c-2.6,0-6.5,0-11.7,0.1c-5.2,0.1-9,0.1-11.6,0.1c-5.6,0-9.1,0.2-10.4,0.5c-0.5-0.1-2-0.2-4.5-0.2
		c-2.5,0-3.8,0.1-4.1,0.2L325,5.8C324.2,6,322.9,6,321.2,6c-1.7-0.1-3,0-3.8,0.2c-0.9-0.2-2-0.2-3.4-0.2c-2,0.1-3.1,0.2-3.3,0.2
		c-10.4,0-17,0.2-19.7,0.6l-0.8,1.5l0.2,0.4c-0.2,0.5-0.3,1.2-0.2,2.2c0,1,0,1.7-0.1,2.2c0,0.8,0.1,1.9,0.2,3.4
		c-0.2,0.8-0.4,6-0.4,15.5c0,9.5,0.1,14.4,0.2,14.8l-0.2,1.4c0,0.2,0,0.4,0,0.6l0.2,0.7l-0.2,0.7l0.2,0.5c-0.2,10-0.2,21.9,0,35.7
		c-0.2,8-0.1,19.9,0.2,35.6l0.6,1.5c1.7,0.9,4,1.1,6.8,0.5l0.7,0.2l0.6-0.2c0.6,0.2,1.2,0.3,1.9,0.3c8.2,0,20.6-0.1,37.2-0.3
		c16.6-0.2,29-0.3,37.3-0.3c4.5,0,6.6,0,6.4,0c2.9-0.2,4.6-0.8,5.3-1.9v-0.4C387.4,120.9,387.6,119.5,387.6,117.4z M386.3,103.5
		c0,0.1,0,0.5-0.1,1.2c-0.1,0.7-0.1,1.3-0.1,2c-2.9-4.7-5.5-8.6-7.7-11.7c1-2.6,2.2-6.5,3.9-11.7c0.4-2.2,1-5.5,2-9.7
		c0-0.5,0-1.3,0.1-2.2c0.1-1,0.1-1.6,0.1-2.1c0-0.5-0.1-1-0.3-1.7c0.5-3.5,0.5-10.1,0.2-19.7c-0.4-13.1-0.6-20.1-0.6-21
		c0-0.3,0.1-2.8,0.4-7.4c0.2-3.8,0.3-6,0.1-6.6l0.3-1.1c0-1.6-0.5-2.7-1.5-3.2c-0.7-0.4-1.9-0.6-3.6-0.5
		c-13.3,0.4-27.8,0.5-43.7,0.5c-0.8,0-3.8,0-9-0.1c-3.7,0-7.7,0-12.1,0c-10.1,0-16.9,0.2-20.2,0.7c-1,0.2-1.7,1.1-1.9,2.6
		c-0.1,0.3-0.1,1.5-0.2,3.7c0,0.2,0,2,0,5.2c0,0.7,0,3.3,0.1,7.8c0.1,5.8,0.2,10.4,0.2,13.6c0.2,12.1,0.1,18.7-0.1,19.7l0.2,0.3
		c0.1,0.6,0,1.5-0.2,2.7c0.5,4.4,0.9,8.9,1.3,13.3c0.7,5.1,1.8,9.4,3.2,13c0,0.8,0.5,2.2,1.4,4.4l-0.1,0.7c-3.2,5.2-5.6,8.3-7,9.3
		c-0.1-2.2-0.2-10.5-0.2-24.9c0-5.2-0.1-13.1-0.2-23.5c-0.2-10.5-0.2-18.3-0.2-23.5c0-0.7,0.1-1.8,0.2-3.4c0.1-1.5,0.1-2.7,0-3.5
		c0-1.3-0.1-2.5-0.4-3.4l0.2-0.5c-0.2-1.3-0.2-3.4,0-6.4c0.3-3.8,0.4-6,0.4-6.6l-0.1-0.5c0.7-1.4,1.7-2.1,3.2-2.1
		c0.4,0,0.8,0.1,1.3,0.2c-0.3,0.1,0.8,0.1,3.2,0.1c5.7,0,14.2-0.1,25.6-0.2c11.4-0.1,19.9-0.2,25.6-0.2c3.7,0,9.2-0.1,16.6-0.3
		c7.4-0.2,12.9-0.3,16.6-0.3c1.3,0,2.1,0.5,2.4,1.5c0.2,0.5,0.3,1.5,0.3,3c0,1.3-0.1,3.3-0.4,5.9c-0.2,2.6-0.4,4.5-0.4,5.8
		c0,0.6,0,3.4-0.1,8.4c0,3.4,0,7.3,0,11.6c0,9.9,0.3,16,0.8,18.3c-0.4,1.3-0.4,2.7,0,4.2l-0.2,0.5c0.2,0.8,0.2,1.8,0,3l0.2,0.5
		c-0.4,1.7-0.4,3.1,0,4.1c-0.1,0.2-0.1,4.9,0.1,14.1L386.3,103.5z M385.7,117.1c0,3.4-1.4,5-4.3,5c-0.5,0-1.5-0.1-2.8-0.2
		c-1.3-0.1-2.4-0.2-3.2-0.2c-6.9,0-10.7,0.1-11.3,0.2c-1.3-0.3-5.3-0.4-12.1-0.4c-6.5,0-16.8,0.2-30.8,0.5
		c-14,0.3-21.9,0.5-23.6,0.5c-2.1,0-3.7-0.1-4.8-0.4c-0.4-0.4-0.7-1-1-1.9v-10.7c1.7-4.7,3.9-8,6.5-10.1c0.5-0.1,1,0.1,1.3,0.5
		c0.8,1,1.8,2.5,3,4.7c1.2,2.2,2.2,3.7,3,4.6c3.4,4.1,6.3,7,8.9,8.7l0.3,0.5c-1.4-0.2-3.8-1.1-7-2.4c-2.9-1.3-5.5-1.9-7.7-1.9
		c-3.6,0-5.4,1.3-5.4,4l0.5,1.7c0.9,1.3,4.7,1.9,11.5,1.9c3.8,0,9.6-0.3,17.2-0.9c7.6-0.6,13.3-0.9,17.1-0.9c3.1,0,7.8,0.2,14.2,0.5
		c6.3,0.3,11.1,0.5,14.3,0.5c1.2,0,3-0.1,5.3-0.2c2.3-0.1,4.1-0.2,5.3-0.2c1.5-0.5,2.3-0.9,2.5-1c0.8-0.5,1.3-1.2,1.3-2.2
		c0-1.3-0.6-2.1-1.9-2.5c-1.1-0.2-2.3-0.5-3.4-0.7c-0.4,0.2-1.3,0.2-2.9,0.2c-1.6-0.1-5.4,1.3-11.6,4l-0.5-0.2l0.2-0.5
		c0.5-1,1.6-2.3,3.1-3.8c1.9-2,3.1-3.3,3.4-3.7c2.6-3.3,5.2-7.4,8-12.3h0.4c2.3,1.9,4.2,4.9,5.6,8.8
		C385.1,110.1,385.7,113.6,385.7,117.1z M383.5,11.6c-0.3,5.3-0.5,11.2-0.5,17.7c0,4.2,0.1,10.1,0.2,17.7c0.1,8.2,0.2,14.1,0.2,17.7
		c0,0.1-0.1,0.5-0.2,1.3c-0.1,0.5,0,0.9,0.1,1.3l-0.1,0.5c0.1,0.8,0.1,2.2-0.1,4.4c-0.2,2.2-0.5,3.6-0.8,4.3c0,2.2-0.5,4.4-1.3,6.7
		c0.2,2.6-1.2,6.9-4.1,12.7c-3.1,6-6.6,11.1-10.6,15.4c-4.6,5-8.8,7.6-12.4,7.6c-1.6,0-4.1-0.3-7.4-1c-3.3-0.7-5.8-1-7.5-1
		c-1.9,0-4.6,0.4-8.1,1.2c-3.5,0.8-6.2,1.2-7.9,1.2c-2,0-4.5-0.9-7.3-2.8c-2.5-1.7-4.4-3.5-5.8-5.3c-1.4-1.7-3.4-4.3-5.9-8
		c-5.7-9.2-8.5-21.9-8.5-38.2c0-2.5,0.1-3.4,0.2-2.5c-0.1-0.7-0.6-1.4-1.7-1.9c-0.2-7.1-0.4-14.4-0.4-22c0-17.9,0.7-27.2,2.1-27.9
		c3.2-0.2,9.8-0.4,19.6-0.4c7,0,17.5-0.1,31.5-0.4c14-0.2,24.5-0.4,31.5-0.4c2.1,0,3.2,0,3.3,0.1C382.4,9.8,383,10.4,383.5,11.6z
		 M382.2,13.5l-0.3-1.6c-0.8-0.7-3.1-1-6.8-1c-7,0-11.4,0.2-13.2,0.5c-1,0.2-1.9,0.6-2.6,1.3c-0.7,0.7-1.4,1.4-2.1,2.1h-0.7
		c-1.7-2.4-4.9-3.6-9.7-3.6c-0.4,0-1.3,0-2.7,0c-1.4-0.1-2.6-0.1-3.5-0.1c-7.9,0-12.6,1.2-14,3.7h-0.8c-1.3-1.4-2.8-2.4-4.6-2.8
		c-1.1-0.2-2.9-0.4-5.5-0.4c-12.8,0-19.5,0.3-20.1,0.9l-0.1,0.5l0.1,0.7c0.9,2,1.4,3.9,1.4,5.6c0,1.6-0.4,4.1-1.3,7.4
		c-0.8,3.3-1.3,5.9-1.3,7.6c0,2.2,0.3,4.1,1,5.7c1,2.2,2.4,3.2,4.3,3.2c1,0,1.5,0.6,1.5,1.7c0,0.8-0.3,2-0.8,3.6
		c-0.7,1.9-1.1,3.1-1.2,3.7l-0.3,0.4v0.7l-0.4,0.5c-0.4,1.7-0.7,3.5-1,5.2c-0.4,2.1-0.5,3.9-0.5,5.3c-0.4,0.6-0.5,2.4-0.5,5.4
		c0,4,0.1,7,0.4,8.9c1.1,8.2,3.9,16.2,8.4,24.1c5.6,9.8,11.8,14.8,18.7,14.8c2.2,0,4.8-0.9,7.6-2.7c2.4-1.5,4.5-3.3,6.3-5.3h0.7
		c6,5.2,11.3,7.8,15.8,7.8c2.2,0,4.4-1,6.6-3c1.7-1.7,3.5-3.4,5.3-5.1l0.9-1.3c4.3-4.7,7.9-11.2,10.7-19.4c2.6-7.8,4-15.1,4-22
		c0-3.7-0.2-9.3-0.7-16.8c-0.5-7.5-0.7-13.1-0.7-16.8c0-2.2,0.3-5.5,0.8-9.9C381.9,18.8,382.2,15.6,382.2,13.5z M376.5,29.5
		c-0.4,5-0.5,8.7-0.5,11.2c0,0.7,0.1,1.4,0.2,2c-0.1,0.5-0.1,1.4,0,2.6c0.1,1.1,0.1,1.9-0.2,2.5c0.7,4.9,1.1,11,1.1,18.4
		c0,9.8-1.8,18.8-5.5,27c-4.2,9.5-10.2,16.2-18.1,20.1c-2.2-0.5-4.8-2.1-7.8-4.7c-1-0.9-3.2-3.1-6.7-6.6l-0.4-0.2
		c-1.7,2-3.5,3.9-5.2,5.9c-3.5,3.9-6.5,6-8.7,6.2c-2.9-0.8-6.5-3.7-10.9-8.6c-7.6-8.6-11.4-20.2-11.4-34.6c0-2,0.5-6.6,1.5-13.9
		c0.2-1.3,1.1-4.3,2.9-9.1c1.7-4.5,2.5-7.3,2.5-8.4c0-0.8-0.4-1.3-1.1-1.3c-0.5,0-1.3,0.1-2.3,0.2c-1,0.2-1.7,0.2-2.2,0.2
		c-2.5-1-3.8-3.2-3.8-6.6c0-1.4,0.4-3.1,1.2-5.2s1.2-3.4,1.2-3.9c0-0.1-0.2-1.3-0.5-3.9c0.7-0.2,1.6-0.2,2.8-0.1
		c1.7,0.2,2.6,0.3,2.9,0.3c1.1,0,2.8-0.3,5-0.8c2.2-0.5,3.8-0.8,5-0.8c4,0,6,2.4,6,7.3c0,1.4-0.4,4.3-1.2,8.5
		c-0.8,4.2-1.5,6.9-2.1,8.1c0,0.2-0.3,1.4-0.8,3.6s-1,4.9-1.3,8.1c-0.3,2.7-0.6,5.4-0.8,8l0.2,0.5l-0.2,1.3l0.2,1.6l-0.2,0.5
		c0,1.1,0.1,2.7,0.4,4.8c0.6,3.5,1.8,7.5,3.7,12c2.5,5.8,4.9,8.6,7.2,8.6c0.8,0,1.7-0.3,2.5-1c0.8-0.7,1.3-1.5,1.4-2.4
		c-1.3-7.9-2-12.8-2-14.8c0-1.2,0.1-3,0.4-5.4c0.3-2.4,0.4-4.1,0.4-5.2l0.4-0.8c0.4-1.9,0.9-4.6,1.7-8.1c0.2-1,1-3.1,2.3-6.5
		c1.1-2.8,1.7-5,1.9-6.6v-0.5c0.1-0.5-0.2-0.8-0.8-1c-1.5,0.5-2.9,0.7-4,0.7c-2.1,0-3.5-0.8-4.1-2.2c-0.5-0.9-0.7-2.5-0.7-5
		c0-1.1,0.4-2.7,1.2-4.7c0.8-2.1,1.2-3.6,1.2-4.7c0-0.7-0.2-1.7-0.7-3.1l0.5-1c3.2,0.5,5.6,0.7,7.3,0.7c1,0,2.5-0.2,4.4-0.7
		c1.9-0.5,3.4-0.7,4.3-0.7c2.2,0,3.6,0.4,4.5,1.1c0.8,0.8,1.2,2.2,1.2,4.3c0,3.6-1,9-3,16.2c-2,7.2-2.9,12.6-2.9,16.3
		c-0.4,0.7-0.5,3.3-0.5,7.7c0,4.3,1,9.5,3.2,15.7c2.6,7.4,5.5,11.4,8.6,12c2-0.5,3.6-2.8,5-6.8c1-3.2,1.5-6.2,1.5-8.9
		c0-1.1-0.1-3.2-0.4-6.1c-0.2-2.6-0.2-4.6-0.2-6c-0.2-0.7-0.5-2.4-0.8-5c-0.2-2.5-0.5-4-0.9-4.7c-0.1-1.4-0.7-4-1.6-7.6
		c-0.8-3.2-1.3-5.7-1.3-7.6l-0.4-0.9l0.1-0.4c-0.8-3-1.1-5.9-0.7-8.6l-0.3-0.6c0.2-4,0.6-6.5,1.2-7.6c1-1.7,3.2-2.6,6.8-2.6
		c1,0,2.4,0.2,4.2,0.5c1.9,0.4,3.2,0.5,4.1,0.5c0.7,0,1.8-0.3,3.4-1l0.2,0.9C377,20.8,376.8,24.5,376.5,29.5z M329.4,45.1
		c0,1-0.2,2.4-0.7,4.5c-0.5,2-0.7,3.6-0.6,4.6l-0.4,0.5c-0.2,1.1-0.4,2.9-0.6,5.1c-0.4,0.6-0.7,2.3-0.9,5c-0.3,2.8-0.4,5.2-0.4,7.2
		c0,1.1,0,1.9,0.1,2.2l-0.1,0.5c0.2,0.6,0.4,1.3,0.4,2.2l-0.1,1.4h-0.3c-1.3,0-2.4-2.8-3.3-8.3c-0.8-4.3-1.2-7.8-1.2-10.3
		c0-2.8,0.3-5.9,0.9-9.5c0.7-4.1,1.5-7.1,2.5-9l0.3-0.1C326.2,42.3,327.7,43.6,329.4,45.1z M327.4,49.3c0-1.1-0.3-1.8-0.8-2.1
		c-0.5-0.2-1.2-0.6-2-1l-0.8,1.2c-0.1,0.5-0.2,1.2-0.5,2.2c-0.1,0.7-0.2,1.8-0.4,3.6c-0.2,1.7-0.4,3-0.4,3.9c0,4.3,0.5,8.5,1.3,12.4
		l0.5,0.2C326.4,55.4,327.4,48.6,327.4,49.3z M358.8,65.7v7.1c0,5.8-0.8,8.7-2.4,8.7h-0.5c-2-1.6-3.7-4.6-4.9-8.8
		c-0.9-3.4-1.4-6.8-1.4-10.3c0-2.8,0.2-6.2,0.6-10.2c0.5-4.7,1.1-7.9,1.8-9.6c0-0.5,0.3-2.2,0.9-4.9h0.3c0,2.4,0.8,6.2,2.4,11.4v0.4
		c-0.2,1.9,0.3,4.5,1.3,8C358.2,61.1,358.8,63.9,358.8,65.7z M357.5,70.4c0-1-0.1-2.6-0.4-4.8c-0.3-2.2-0.4-3.7-0.4-4.8
		c-0.1-0.3-0.6-2.7-1.4-7.2c-0.7-3.7-1.6-5.8-2.8-6.3c-0.1,0.4-0.4,0.9-0.7,1.7c-0.1,3.1-0.4,7.6-1,13.6l0.2,0.7l-0.2,0.5
		c0.4,2.9,0.8,5.1,1.3,6.7c0.9,3.1,2.1,4.7,3.7,5C356.9,75.3,357.5,73.5,357.5,70.4z"/>
</g>
</svg>
